<?xml version="1.0" encoding="UTF-8"?>
<svg width="59px" height="59px" viewBox="0 0 59 59" version="1.1" xmlns="http://www.w3.org/2000/svg" xmlns:xlink="http://www.w3.org/1999/xlink">
    <title>Group 4</title>
    <g id="Home" stroke="none" stroke-width="1" fill="none" fill-rule="evenodd">
        <g id="Contact" transform="translate(-182.000000, -613.000000)">
            <g id="Group-15" transform="translate(182.000000, 530.000000)">
                <g id="Group-4" transform="translate(0.000000, 83.000000)">
                    <g id="Group-9" fill="#252525">
                        <circle id="Oval" cx="29.5" cy="29.5" r="29.5"></circle>
                    </g>
                    <g id="phone" transform="translate(14.000000, 14.000000)" stroke="#FFFFFF" stroke-linecap="round" stroke-linejoin="round" stroke-width="2">
                        <path d="M32,23.872 L32,28.672 C32.0036573,29.5730322 31.6272768,30.4338534 30.9633246,31.0429838 C30.2993724,31.6521142 29.4093823,31.953101 28.512,31.872 C23.5885342,31.3370252 18.8591987,29.6546313 14.704,26.96 C10.838125,24.5034622 7.56053784,21.225875 5.104,17.36 C2.39996489,13.1859264 0.717188803,8.43359129 0.192,3.488 C0.111157137,2.59339573 0.410035213,1.70600388 1.01562525,1.04259369 C1.62121528,0.379183501 2.47775079,0.000845904382 3.376,-0.000157310309 L8.176,-0.000157310309 C9.78218249,-0.0158082514 11.1512014,1.16154797 11.376,2.752 C11.5785968,4.28810632 11.9543191,5.79636301 12.496,7.248 C12.935576,8.41740005 12.6544241,9.73569002 11.776,10.624 L9.744,12.656 C12.0216888,16.6616733 15.3383267,19.9783112 19.344,22.256 L21.376,20.224 C22.26431,19.3455759 23.5826,19.064424 24.752,19.504 C26.203637,20.0456809 27.7118937,20.4214032 29.248,20.624 C30.8569003,20.8509765 32.040304,22.2476681 32,23.872 Z" id="Path"></path>
                    </g>
                </g>
            </g>
        </g>
    </g>
</svg>