<?xml version="1.0" encoding="UTF-8"?>
<svg width="92px" height="96px" viewBox="0 0 92 96" version="1.1" xmlns="http://www.w3.org/2000/svg" xmlns:xlink="http://www.w3.org/1999/xlink">
    <title>smscreenlogo</title>
    <g id="Home" stroke="none" stroke-width="1" fill="none" fill-rule="evenodd">
        <g id="12.9″-iPad-Pro" transform="translate(-40.000000, -17.000000)" fill="#252525">
            <g id="Group-38" transform="translate(40.000000, 17.000000)">
                <path d="M78.4614831,66.7658074 L50.5651714,66.7658074 L50.5651714,58.7824 C52.7098468,59.4022519 57.8791714,60.4262519 63.1434831,57.9575111 C68.1383662,55.6149926 71.8249377,50.7812148 74.1010416,43.5912889 C74.2223143,43.2078815 74.0138208,42.7984 73.6302883,42.6680296 C73.3811714,42.5844741 70.0626,41.4911407 65.6609377,41.4058074 C67.1795351,37.1237333 68.0744442,32.2384 68.3211714,26.7835852 C68.3319247,26.5506963 68.2309636,26.3261037 68.0493532,26.1779556 C67.8677429,26.0304 67.627587,25.9758815 67.397587,26.0309926 C66.9985221,26.1275852 60.1522883,27.8526222 53.2056909,33.2475852 C52.0509117,28.9210667 50.0030156,23.8224 46.3929117,18.6437333 C46.1145221,18.2443259 45.4328857,18.2443259 45.1538987,18.6437333 C41.5437948,23.8218074 39.4958987,28.9198815 38.3417169,33.2458074 C31.3963143,27.8520296 24.5512753,26.1275852 24.1522104,26.0309926 C23.9210156,25.9758815 23.6826519,26.0304 23.5004442,26.1779556 C23.3188338,26.3261037 23.2178727,26.5506963 23.228626,26.7835852 C23.4938727,32.6591407 24.4813792,37.4656593 25.8745221,41.4052148 C21.4782364,41.4929185 18.1650416,42.5844741 17.9171195,42.6680296 C17.5341844,42.7984 17.3250935,43.2078815 17.4463662,43.5912889 C19.7230675,50.7812148 23.409639,55.6149926 28.4033273,57.9569185 C33.6688338,60.427437 38.8381584,59.4022519 40.9822364,58.7818074 L40.9822364,66.7658074 L13.0966779,66.7658074 L13.0966779,27.665363 L45.7680286,2.12936296 L78.4614831,27.6659556 L78.4614831,66.7658074 Z M61.641613,49.371437 C62.9947299,47.4229926 64.1423403,45.2635852 65.091613,42.9098036 C68.4263143,42.9080296 71.1970675,43.5308444 72.4420545,43.8644741 C70.286626,50.2395852 66.9519247,54.5252148 62.5221844,56.6099556 C58.5160026,58.4944 54.4763662,58.1252148 52.1333532,57.6339556 C54.7959766,56.3972148 58.4299766,53.9936593 61.641613,49.371437 L61.641613,49.371437 Z M54.6537948,43.8259556 C54.6651455,42.0997333 54.523561,38.891437 53.6041584,34.8570667 C59.0524701,30.4955852 64.5802364,28.4499556 66.7721065,27.7560296 C66.4787818,32.2751407 65.594626,37.0431407 63.9828338,41.425363 C61.0412234,41.5486222 57.7644701,42.1755852 54.6537948,43.8259556 L54.6537948,43.8259556 Z M45.7746,40.8452148 C43.8832234,38.2638815 41.7791714,36.1050667 39.6470416,34.3024 C40.6668078,30.203437 42.4978468,25.3281778 45.7734052,20.3829926 C49.049561,25.3287704 50.8800026,30.2052148 51.8997688,34.3041778 C49.7688338,36.1062519 47.6653792,38.2650667 45.7746,40.8452148 L45.7746,40.8452148 Z M47.6838987,51.7121778 C47.2716909,52.4872889 46.5757169,52.9335111 45.7751974,52.9358815 C44.9740805,52.9335111 44.2781065,52.4872889 43.8658987,51.7121778 C43.3993273,50.8339556 42.7099247,48.3367704 45.7751974,43.4822519 C48.8398727,48.3367704 48.1510675,50.8339556 47.6838987,51.7121778 L47.6838987,51.7121778 Z M36.8930156,43.8259556 C33.7464961,42.1566222 30.4309117,41.5338074 27.4642104,41.4206222 C26.1057169,37.7512889 25.1128338,33.259437 24.7758987,27.755437 C26.9659766,28.4487704 32.4937429,30.4944 37.9432494,34.8546963 C37.0238468,38.8902519 36.8810675,42.0997333 36.8930156,43.8259556 L36.8930156,43.8259556 Z M39.4481065,57.627437 C37.1110675,58.1222519 33.0505221,58.5044741 29.024626,56.6099556 C24.5954831,54.5252148 21.2601844,50.2389926 19.1059506,43.8638815 C20.3485481,43.5290667 23.1115351,42.9056593 26.4402623,42.9062514 C30.0658987,51.9136593 35.8595091,55.9290667 39.4481065,57.627437 L39.4481065,57.627437 Z M79.6700286,26.7243259 L46.2304182,0.604622222 C45.9597948,0.393066667 45.5768597,0.393066667 45.3062364,0.604622222 L11.8881325,26.7243259 C11.7083143,26.8647704 11.6031714,27.0792889 11.6031714,27.3062519 L11.6031714,67.5065481 C11.6031714,67.915437 11.9377169,68.2472889 12.3499247,68.2472889 L41.7289896,68.2472889 C42.1411974,68.2472889 42.4757429,67.915437 42.4757429,67.5065481 L42.4757429,57.7548444 C42.4757429,57.7424 42.471561,57.7311407 42.4709636,57.7192889 C42.4697688,57.7009185 42.4661844,57.6837333 42.4643922,57.6659556 C42.4548338,57.5901037 42.4351195,57.5172148 42.4040545,57.4484741 C42.3992753,57.4384 42.3974831,57.4283259 42.3921065,57.4188444 C42.3550675,57.3459556 42.3030935,57.2819556 42.2421584,57.2238815 C42.2272234,57.2102519 42.2116909,57.1972148 42.1961584,57.1841778 C42.1794312,57.1705481 42.1650935,57.1539556 42.1471714,57.1415111 C42.0928078,57.105363 42.0336649,57.0775111 41.9733273,57.0567704 C41.9709377,57.0561778 41.9691455,57.0538074 41.9667558,57.0526222 C39.294574,56.161363 32.3103403,52.9429926 28.0723662,42.9595852 C31.0414571,43.1492148 34.3092494,43.8958815 37.2896909,45.7684741 C37.5292494,45.9189926 37.8339247,45.9219556 38.0764701,45.7755852 C38.319613,45.6298074 38.457613,45.3595852 38.4331195,45.0792889 C38.4271455,45.0117333 38.1481584,41.3329185 39.2670935,35.9628444 C41.2367299,37.6890667 43.1597688,39.7311407 44.8707299,42.1382519 C41.1166519,47.7892148 41.7905221,50.9850667 42.5450416,52.4031407 C43.2117429,53.6564741 44.4113273,54.4078815 45.7572753,54.417363 C45.7626519,54.417363 45.768626,54.4179556 45.7751974,54.417363 C45.7799766,54.4179556 45.7877429,54.417363 45.7925221,54.417363 C47.1384701,54.4078815 48.3380545,53.6564741 49.0047558,52.4031407 C49.7592753,50.9850667 50.4331455,47.7892148 46.6790675,42.1382519 C48.3888338,39.7323259 50.3106779,37.6908444 52.2803143,35.9646222 C53.3986519,41.3341037 53.1190675,45.0117333 53.1136909,45.0792889 C53.0891974,45.3595852 53.2277948,45.6298074 53.4703403,45.7755852 C53.7122883,45.9225481 54.017561,45.9189926 54.2571195,45.7684741 C57.2005221,43.9189926 60.4300805,43.169363 63.3740805,42.9696593 C60.6600805,49.4698074 56.2291455,54.907437 49.5872234,57.0502519 C49.583639,57.051437 49.5812494,57.0544 49.5776649,57.0555852 C49.5155351,57.0769185 49.4551974,57.1041778 49.4002364,57.1415111 C49.3829117,57.1527704 49.3709636,57.1681778 49.3548338,57.1806222 C49.3387039,57.1930667 49.3243662,57.2061037 49.3088338,57.2203259 C49.2478987,57.2778074 49.1941325,57.3412148 49.1558987,57.4146963 C49.1523143,57.4212148 49.1511195,57.4289185 49.1481325,57.435437 C49.1134831,57.5059556 49.0937688,57.5812148 49.0830156,57.659437 C49.080626,57.6778074 49.0770416,57.6949926 49.0764442,57.7139556 C49.0758468,57.7275852 49.0716649,57.7412148 49.0716649,57.7548444 L49.0716649,67.5065481 C49.0716649,67.915437 49.405613,68.2472889 49.8184182,68.2472889 L79.2082364,68.2472889 C79.6204442,68.2472889 79.9549896,67.915437 79.9549896,67.5065481 L79.9549896,27.3062519 C79.9549896,27.0786963 79.8498468,26.8647704 79.6700286,26.7243259 L79.6700286,26.7243259 Z" id="Fill-2"></path>
                <path d="M0.0168467532,75.1179852 C0.0168467532,74.9650963 0.155444156,74.8430222 0.310171429,74.8430222 L0.696093506,74.8430222 L7.38998961,82.5230222 L7.40492468,82.5230222 L7.40492468,75.2862815 C7.40492468,75.1333926 7.52798961,74.9959111 7.69765195,74.9959111 L8.68515844,74.9959111 C8.83988571,74.9959111 8.97848312,75.1333926 8.97848312,75.2862815 L8.97848312,85.5831704 C8.97848312,85.7360593 8.83988571,85.8587259 8.68515844,85.8587259 L8.2843013,85.8587259 L1.59040519,77.9636148 L1.57487273,77.9636148 L1.57487273,85.4142815 C1.57487273,85.567763 1.45121039,85.7052444 1.28154805,85.7052444 L0.310171429,85.7052444 C0.155444156,85.7052444 0.0168467532,85.567763 0.0168467532,85.4142815 L0.0168467532,75.1179852 Z" id="Fill-4"></path>
                <path d="M21.3664026,82.0641778 L19.4696494,77.8721778 L19.391987,77.8721778 L17.5107662,82.0641778 L21.3664026,82.0641778 Z M14.3797792,85.307437 L19.1147922,75.0111407 C19.1613896,74.9192889 19.299987,74.8428444 19.3770519,74.8428444 L19.5311818,74.8428444 C19.6088442,74.8428444 19.7474416,74.9192889 19.7934416,75.0111407 L24.4973896,85.307437 C24.589987,85.5065481 24.4663247,85.7056593 24.2357273,85.7056593 L23.2637532,85.7056593 C23.0785584,85.7056593 22.971026,85.6138074 22.9088961,85.4757333 L21.9524545,83.3797333 L16.9091818,83.3797333 C16.6003247,84.0837333 16.2765325,84.7723259 15.9682727,85.4757333 C15.9222727,85.5829926 15.7992078,85.7056593 15.6134156,85.7056593 L14.642039,85.7056593 C14.4102468,85.7056593 14.2871818,85.5065481 14.3797792,85.307437 L14.3797792,85.307437 Z" id="Fill-6"></path>
                <path d="M31.0706701,75.072237 C31.1017351,74.9495704 31.2248,74.8429037 31.3484623,74.8429037 L31.5951896,74.8429037 C31.6871896,74.8429037 31.8263844,74.9193481 31.8568519,75.0106074 L35.0804364,82.8292741 L35.1419688,82.8292741 L38.3506182,75.0106074 C38.3810857,74.9193481 38.5047481,74.8429037 38.6128779,74.8429037 L38.8596052,74.8429037 C38.9826701,74.8429037 39.1063325,74.9495704 39.1368,75.072237 L41.0341506,85.3537185 C41.0807481,85.5676444 40.9726182,85.7051259 40.7563584,85.7051259 L39.7539169,85.7051259 C39.6153195,85.7051259 39.4922545,85.5984593 39.4611896,85.4912 L38.3195532,78.6526815 L38.2735532,78.6526815 L35.496826,85.6897185 C35.465761,85.7815704 35.373761,85.8586074 35.2351636,85.8586074 L34.9573714,85.8586074 C34.8337091,85.8586074 34.7255792,85.7815704 34.6945143,85.6897185 L31.9034494,78.6526815 L31.8419169,78.6526815 L30.7313455,85.4912 C30.715813,85.5984593 30.5772156,85.7051259 30.4535532,85.7051259 L29.4511117,85.7051259 C29.2354494,85.7051259 29.1273195,85.5676444 29.157787,85.3537185 L31.0706701,75.072237 Z" id="Fill-8"></path>
                <path d="M52.697361,82.0641778 L50.8006078,77.8721778 L50.7229455,77.8721778 L48.8417247,82.0641778 L52.697361,82.0641778 Z M45.7107377,85.307437 L50.4457506,75.0111407 C50.4923481,74.9192889 50.6309455,74.8428444 50.7080104,74.8428444 L50.8621403,74.8428444 C50.9398026,74.8428444 51.0784,74.9192889 51.1244,75.0111407 L55.8283481,85.307437 C55.9209455,85.5065481 55.7972831,85.7056593 55.5666857,85.7056593 L54.5947117,85.7056593 C54.4095169,85.7056593 54.3019844,85.6138074 54.2398545,85.4757333 L53.283413,83.3797333 L48.2401403,83.3797333 C47.9312831,84.0837333 47.6074909,84.7723259 47.2992312,85.4757333 C47.2532312,85.5829926 47.1301662,85.7056593 46.944374,85.7056593 L45.9729974,85.7056593 C45.7412052,85.7056593 45.6181403,85.5065481 45.7107377,85.307437 L45.7107377,85.307437 Z" id="Fill-10"></path>
                <path d="M60.5353429,84.160237 C60.6739403,83.9611259 60.7970052,83.7317926 60.9362,83.5326815 C61.0747974,83.3335704 61.2910571,83.2725333 61.4607195,83.4106074 C61.5533169,83.4870519 62.7403558,84.4660148 63.9285896,84.4660148 C64.9925636,84.4660148 65.671213,83.8236444 65.671213,83.0432 C65.671213,82.1252741 64.8694987,81.5439407 63.3419403,80.9163852 C61.7689792,80.2586074 60.5353429,79.4479407 60.5353429,77.6731259 C60.5353429,76.4796444 61.4607195,74.8429037 63.9130571,74.8429037 C65.4549532,74.8429037 66.6121221,75.638163 66.7668494,75.7454222 C66.8899143,75.8218667 67.0129792,76.0363852 66.8588494,76.2657185 C66.7357844,76.4494222 66.5965896,76.6633481 66.4729273,76.8470519 C66.3498623,77.046163 66.1491351,77.1374222 65.9334727,76.9999407 C65.8253429,76.9389037 64.7458364,76.2349037 63.8515247,76.2349037 C62.5557584,76.2349037 62.1083039,77.046163 62.1083039,77.6120889 C62.1083039,78.4837926 62.7875506,79.0194963 64.067187,79.5397926 C65.8564078,80.2586074 67.3833688,81.1000889 67.3833688,82.9667556 C67.3833688,84.5578667 65.9490052,85.8586074 63.9435247,85.8586074 C62.0623039,85.8586074 60.8740701,84.8790519 60.6273429,84.6497185 C60.4887455,84.5276444 60.3806156,84.4197926 60.5353429,84.160237" id="Fill-12"></path>
                <path d="M74.8502442,76.4339556 L72.336374,76.4339556 C72.1667117,76.4339556 72.0436468,76.2964741 72.0436468,76.1429926 L72.0436468,75.2861037 C72.0436468,75.1332148 72.1667117,74.9957333 72.336374,74.9957333 L78.9687377,74.9957333 C79.1384,74.9957333 79.2620623,75.1332148 79.2620623,75.2861037 L79.2620623,76.1429926 C79.2620623,76.2964741 79.1384,76.4339556 78.9687377,76.4339556 L76.4548675,76.4339556 L76.4548675,85.4146963 C76.4548675,85.5675852 76.3156727,85.7056593 76.1615429,85.7056593 L75.1435688,85.7056593 C74.9888416,85.7056593 74.8502442,85.5675852 74.8502442,85.4146963 L74.8502442,76.4339556 Z" id="Fill-14"></path>
                <path d="M84.7849896,75.2864 C84.7849896,75.1335111 84.9086519,74.9960296 85.0783143,74.9960296 L91.2476909,74.9960296 C91.4179506,74.9960296 91.5410156,75.1335111 91.5410156,75.2864 L91.5410156,76.1432889 C91.5410156,76.2961778 91.4179506,76.4342519 91.2476909,76.4342519 L86.3734831,76.4342519 L86.3734831,79.5548444 L90.4919766,79.5548444 C90.6467039,79.5548444 90.7853013,79.6929185 90.7853013,79.8458074 L90.7853013,80.7026963 C90.7853013,80.8709926 90.6467039,80.9930667 90.4919766,80.9930667 L86.3734831,80.9930667 L86.3734831,84.2825481 L91.2476909,84.2825481 C91.4179506,84.2825481 91.5410156,84.4200296 91.5410156,84.5729185 L91.5410156,85.4144 C91.5410156,85.5678815 91.4179506,85.705363 91.2476909,85.705363 L85.0783143,85.705363 C84.9086519,85.705363 84.7849896,85.5678815 84.7849896,85.4144 L84.7849896,75.2864 Z" id="Fill-16"></path>
                <path d="M11.602574,90.9220741 C11.602574,90.8485926 11.6688857,90.7828148 11.7429636,90.7828148 L12.4311714,90.7828148 C12.5124182,90.7828148 12.571561,90.8485926 12.571561,90.9220741 L12.571561,92.866963 L14.9832753,92.866963 L14.9832753,90.9220741 C14.9832753,90.8485926 15.0424182,90.7828148 15.1236649,90.7828148 L15.8041065,90.7828148 C15.8781844,90.7828148 15.9456909,90.8485926 15.9456909,90.9220741 L15.9456909,95.7801481 C15.9456909,95.8536296 15.8781844,95.9194074 15.8041065,95.9194074 L15.1236649,95.9194074 C15.0424182,95.9194074 14.9832753,95.8536296 14.9832753,95.7801481 L14.9832753,93.7546667 L12.571561,93.7546667 L12.571561,95.7801481 C12.571561,95.8536296 12.5124182,95.9194074 12.4311714,95.9194074 L11.7429636,95.9194074 C11.6688857,95.9194074 11.602574,95.8536296 11.602574,95.7801481 L11.602574,90.9220741 Z" id="Fill-18"></path>
                <path d="M21.431161,95.0389926 C22.3631091,95.0389926 23.1319662,94.283437 23.1319662,93.3584 C23.1319662,92.4339556 22.3631091,91.6635852 21.431161,91.6635852 C20.4980182,91.6635852 19.7363299,92.4339556 19.7363299,93.3584 C19.7363299,94.283437 20.4980182,95.0389926 21.431161,95.0389926 M21.431161,90.7095111 C22.9103299,90.7095111 24.0937844,91.8911407 24.0937844,93.3584 C24.0937844,94.8262519 22.9103299,95.9930667 21.431161,95.9930667 C19.9507974,95.9930667 18.7751091,94.8262519 18.7751091,93.3584 C18.7751091,91.8911407 19.9507974,90.7095111 21.431161,90.7095111" id="Fill-20"></path>
                <path d="M27.4571013,90.8193778 C27.4642701,90.7607111 27.5084779,90.7091556 27.5903221,90.7091556 L27.7086078,90.7091556 C27.7677506,90.7091556 27.8125558,90.7387852 27.8340623,90.782637 L29.461387,94.2463407 L29.4840883,94.2463407 L31.111413,90.782637 C31.1335169,90.7387852 31.1705558,90.7091556 31.2374649,90.7091556 L31.3551532,90.7091556 C31.4364,90.7091556 31.4812052,90.7607111 31.488374,90.8193778 L32.3617766,95.7503407 C32.3832831,95.8534519 32.3241403,95.9192296 32.2285558,95.9192296 L31.5552831,95.9192296 C31.488374,95.9192296 31.4292312,95.860563 31.4148935,95.8096 L30.9787896,93.0279704 L30.9554909,93.0279704 L29.6615169,95.9121185 C29.6465818,95.9559704 29.602374,95.9927111 29.5354649,95.9927111 L29.4028416,95.9927111 C29.3365299,95.9927111 29.2988935,95.9559704 29.2767896,95.9121185 L27.9672831,93.0279704 L27.9451792,93.0279704 L27.5162442,95.8096 C27.5084779,95.860563 27.4493351,95.9192296 27.3830234,95.9192296 L26.7175169,95.9192296 C26.6213351,95.9192296 26.5615948,95.8534519 26.5765299,95.7503407 L27.4571013,90.8193778 Z" id="Fill-22"></path>
                <path d="M35.2291896,90.9220741 C35.2291896,90.8485926 35.2883325,90.7828148 35.3695792,90.7828148 L38.3798909,90.7828148 C38.4617351,90.7828148 38.5214753,90.8485926 38.5214753,90.9220741 L38.5214753,91.5241481 C38.5214753,91.5976296 38.4617351,91.6634074 38.3798909,91.6634074 L36.1904104,91.6634074 L36.1904104,92.866963 L38.0178649,92.866963 C38.0913455,92.866963 38.1582545,92.9327407 38.1582545,93.0062222 L38.1582545,93.6148148 C38.1582545,93.696 38.0913455,93.7546667 38.0178649,93.7546667 L36.1904104,93.7546667 L36.1904104,95.0388148 L38.3798909,95.0388148 C38.4617351,95.0388148 38.5214753,95.1051852 38.5214753,95.1780741 L38.5214753,95.7801481 C38.5214753,95.8536296 38.4617351,95.9194074 38.3798909,95.9194074 L35.3695792,95.9194074 C35.2883325,95.9194074 35.2291896,95.8536296 35.2291896,95.7801481 L35.2291896,90.9220741 Z" id="Fill-24"></path>
                <path d="M46.7157481,95.0239407 C47.6763714,95.0239407 48.3795143,94.3051259 48.3795143,93.3439407 C48.3795143,92.3898667 47.6763714,91.6704593 46.7157481,91.6704593 L45.8722156,91.6704593 L45.8722156,95.0239407 L46.7157481,95.0239407 Z M44.9181636,90.9220148 C44.9181636,90.8485333 44.9773065,90.7827556 45.0513844,90.7827556 L46.8035662,90.7827556 C48.2319558,90.7827556 49.4004753,91.9347556 49.4004753,93.3439407 C49.4004753,94.7673481 48.2319558,95.9193481 46.8035662,95.9193481 L45.0513844,95.9193481 C44.9773065,95.9193481 44.9181636,95.8535704 44.9181636,95.7800889 L44.9181636,90.9220148 Z" id="Fill-26"></path>
                <path d="M52.2306104,90.9220741 C52.2306104,90.8485926 52.2897532,90.7828148 52.371,90.7828148 L55.3813117,90.7828148 C55.4625584,90.7828148 55.5228961,90.8485926 55.5228961,90.9220741 L55.5228961,91.5241481 C55.5228961,91.5976296 55.4625584,91.6634074 55.3813117,91.6634074 L53.1918312,91.6634074 L53.1918312,92.866963 L55.0198831,92.866963 C55.0927662,92.866963 55.1596753,92.9327407 55.1596753,93.0062222 L55.1596753,93.6148148 C55.1596753,93.696 55.0927662,93.7546667 55.0198831,93.7546667 L53.1918312,93.7546667 L53.1918312,95.0388148 L55.3813117,95.0388148 C55.4625584,95.0388148 55.5228961,95.1051852 55.5228961,95.1780741 L55.5228961,95.7801481 C55.5228961,95.8536296 55.4625584,95.9194074 55.3813117,95.9194074 L52.371,95.9194074 C52.2897532,95.9194074 52.2306104,95.8536296 52.2306104,95.7801481 L52.2306104,90.9220741 Z" id="Fill-28"></path>
                <path d="M58.129961,95.2004148 L58.3964026,94.7453037 C58.4555455,94.6427852 58.5815974,94.6427852 58.6479091,94.6937481 C58.6849481,94.7162667 59.2847403,95.1488593 59.7650519,95.1488593 C60.1497792,95.1488593 60.4383247,94.8993778 60.4383247,94.5841185 C60.4383247,94.2096 60.1205065,93.9530074 59.4986104,93.7035259 C58.8038312,93.4244148 58.1078571,92.9841185 58.1078571,92.1183407 C58.1078571,91.4653037 58.5959351,90.7091556 59.7722208,90.7091556 C60.5273377,90.7091556 61.1044286,91.0907852 61.2525844,91.2010074 C61.3266623,91.2448593 61.3481688,91.3698963 61.2961948,91.4433778 L61.0154156,91.8611556 C60.9562727,91.9494519 60.8451558,92.0081185 60.7561429,91.9494519 C60.6975974,91.9127111 60.1342468,91.5458963 59.7286104,91.5458963 C59.3068442,91.5458963 59.0768442,91.8244148 59.0768442,92.0596741 C59.0768442,92.404563 59.3504545,92.6392296 59.9496494,92.8810074 C60.6677273,93.1672296 61.4963247,93.5933037 61.4963247,94.5396741 C61.4963247,95.2958222 60.8373896,95.9927111 59.7943247,95.9927111 C58.862974,95.9927111 58.3151558,95.5595259 58.167,95.4208593 C58.1006883,95.3544889 58.0642468,95.3177481 58.129961,95.2004148" id="Fill-30"></path>
                <path d="M64.2959325,90.9220741 C64.2959325,90.8485926 64.3622442,90.7828148 64.4357247,90.7828148 L65.1245299,90.7828148 C65.1986078,90.7828148 65.2643221,90.8485926 65.2643221,90.9220741 L65.2643221,95.7801481 C65.2643221,95.8536296 65.1986078,95.9194074 65.1245299,95.9194074 L64.4357247,95.9194074 C64.3622442,95.9194074 64.2959325,95.8536296 64.2959325,95.7801481 L64.2959325,90.9220741 Z" id="Fill-32"></path>
                <path d="M70.7483584,90.7093926 C71.4144623,90.7093926 72.0506961,90.9659852 72.5531117,91.3914667 C72.6128519,91.4501333 72.6206182,91.5384296 72.5608779,91.5976889 L72.1026701,92.0741333 C72.0435273,92.1328 71.9766182,92.1328 71.9103065,92.0741333 C71.5924883,91.7956148 71.1999948,91.6486519 70.7925662,91.6486519 C69.8683844,91.6486519 69.1359688,92.433837 69.1359688,93.3511704 C69.1359688,94.2608 69.8683844,95.0311704 70.8003325,95.0311704 C71.2143325,95.0311704 71.5321506,94.9067259 71.6809039,94.8480593 L71.6809039,94.2240593 L71.0882805,94.2240593 C71.0076312,94.2240593 70.9484883,94.1659852 70.9484883,94.0919111 L70.9484883,93.5123556 C70.9484883,93.431763 71.0076312,93.3730963 71.0882805,93.3730963 L72.5089039,93.3730963 C72.5829818,93.3730963 72.6421247,93.4388741 72.6421247,93.5123556 L72.6421247,95.3908741 C72.6421247,95.4501333 72.6128519,95.4868741 72.5829818,95.5088 C72.5829818,95.5088 71.8212935,95.9852444 70.7483584,95.9852444 C69.2769558,95.9852444 68.0935013,94.8261333 68.0935013,93.3582815 C68.0935013,91.8910222 69.2769558,90.7093926 70.7483584,90.7093926" id="Fill-34"></path>
                <path d="M75.5830182,90.841363 C75.5830182,90.7678815 75.6487325,90.7092148 75.7228104,90.7092148 L75.9080052,90.7092148 L78.985226,93.9524741 L78.9929922,93.9524741 L78.9929922,90.9219556 C78.9929922,90.8484741 79.0527325,90.7826963 79.1333818,90.7826963 L79.8138234,90.7826963 C79.8879013,90.7826963 79.9548104,90.8484741 79.9548104,90.9219556 L79.9548104,95.8606222 C79.9548104,95.9341037 79.8879013,95.9927704 79.8138234,95.9927704 L79.6363948,95.9927704 L76.544239,92.6244741 L76.5370701,92.6244741 L76.5370701,95.7800296 C76.5370701,95.8535111 76.4779273,95.9192889 76.3966805,95.9192889 L75.7228104,95.9192889 C75.6487325,95.9192889 75.5830182,95.8535111 75.5830182,95.7800296 L75.5830182,90.841363 Z" id="Fill-36"></path>
            </g>
        </g>
    </g>
</svg>