<?xml version="1.0" encoding="UTF-8"?>
<svg width="228px" height="65px" viewBox="0 0 228 65" version="1.1" xmlns="http://www.w3.org/2000/svg" xmlns:xlink="http://www.w3.org/1999/xlink">
    <title>logo-secondary</title>
    <g id="Home" stroke="none" stroke-width="1" fill="none" fill-rule="evenodd">
        <g transform="translate(-40.000000, -32.000000)" fill="#000000" fill-rule="nonzero" id="Group-22">
            <g id="logo-secondary" transform="translate(40.000000, 32.000000)">
                <path d="M64.44,24.67 L33.41,0.23 C33.0129088,-0.0786031489 32.4570912,-0.0786031489 32.06,0.23 L1.06,24.67 C0.801405407,24.8764183 0.65,25.1891234 0.65,25.52 L0.65,63.13 C0.65,63.7319904 1.13800962,64.22 1.74,64.22 L29,64.22 C29.6019904,64.22 30.09,63.7319904 30.09,63.13 L30.09,54 C30.0933465,53.9734383 30.0933465,53.9465617 30.09,53.92 C30.0813246,53.8160489 30.0542364,53.7144682 30.01,53.62 L30.01,53.56 C29.955026,53.4506881 29.8804575,53.3523933 29.79,53.27 L29.66,53.16 C29.5910946,53.1123684 29.5173524,53.0721454 29.44,53.04 L29.39,53.04 C26.95,52.21 20.87,49.37 17,40.67 C19.7366033,40.8866982 22.3825789,41.7504104 24.72,43.19 C25.0673192,43.4043239 25.5052691,43.4066658 25.8548606,43.1960686 C26.204452,42.9854713 26.4071067,42.5972231 26.38,42.19 C26.2742778,39.5712533 26.4824253,36.949266 27,34.38 C28.6579347,35.8885583 30.1558596,37.5640896 31.47,39.38 C28.03,44.71 28.72,47.79 29.47,49.15 C30.0872768,50.4367114 31.3878851,51.255296 32.815,51.255296 C34.2421149,51.255296 35.5427232,50.4367114 36.16,49.15 C36.88,47.79 37.57,44.71 34.16,39.38 C35.4734724,37.5635518 36.9714563,35.8879545 38.63,34.38 C39.1427843,36.9263694 39.3542374,39.5242219 39.26,42.12 C39.2302012,42.5304403 39.4340995,42.922675 39.7871619,43.1340896 C40.1402243,43.3455042 40.582257,43.3400546 40.93,43.12 C43.2379131,41.6971193 45.8482606,40.8372805 48.55,40.61 C45.67,47 41.42,51.26 36.14,53 L36.14,53 C36.0544531,53.0277826 35.9735542,53.068232 35.9,53.12 L35.83,53.18 L35.77,53.18 C35.6715842,53.2692173 35.5931951,53.3782803 35.54,53.5 C35.4774446,53.6171177 35.4431963,53.7472615 35.44,53.88 L35.44,63.09 C35.4373317,63.3781625 35.5499381,63.6554407 35.7527673,63.860148 C35.9555965,64.0648553 36.2318251,64.1800124 36.52,64.18 L63.77,64.18 C64.0581749,64.1800124 64.3344035,64.0648553 64.5372327,63.860148 C64.7400619,63.6554407 64.8526683,63.3781625 64.8500464,63.09 L64.8500464,25.52 C64.8500464,25.1891234 64.6985946,24.8764183 64.44,24.67 Z M32.74,41.42 C35.11,45.42 34.53,47.48 34.16,48.17 C33.9131472,48.7341265 33.3557719,49.0986305 32.74,49.0986305 C32.1242281,49.0986305 31.5668528,48.7341265 31.32,48.17 C31,47.48 30.37,45.45 32.74,41.42 Z M32.74,37.52 C31.2006003,35.4726752 29.443657,33.5983788 27.5,31.93 C28.5836279,27.6220135 30.3528742,23.5162818 32.74,19.77 C35.134131,23.515007 36.9101576,27.6208024 38,31.93 C36.0541427,33.6023131 34.2909659,35.4761075 32.74,37.52 L32.74,37.52 Z M47.74,46.39 C48.9969549,44.5533049 50.0498465,42.5850011 50.88,40.52 C52.9028285,40.5468926 54.9159311,40.8052408 56.88,41.29 C54.88,46.92 51.93,50.72 48.01,52.58 C45.4317901,53.7503949 42.5681078,54.1431086 39.77,53.71 C42.9840625,51.9378274 45.7324717,49.4293043 47.79,46.39 L47.74,46.39 Z M49,54.55 C53.74,52.31 57.23,47.71 59.37,40.87 C59.548495,40.3099306 59.2462863,39.7099574 58.69,39.52 C56.4198564,38.8142756 54.0658215,38.4140896 51.69,38.33 C53.0766414,34.0326381 53.8574883,29.5629629 54.01,25.05 C54.0227384,24.7071911 53.8748166,24.3780651 53.61,24.16 C53.3460572,23.9402232 52.9919876,23.8619551 52.66,23.95 C48.0078632,25.2743618 43.6479928,27.4661721 39.81,30.41 C38.5040303,25.6935351 36.4186093,21.2286385 33.64,17.2 C33.4371239,16.9043004 33.0984968,16.7312243 32.74,16.74 C32.3845697,16.7342697 32.048674,16.9022176 31.84,17.19 C29.0473514,21.2209306 26.9452814,25.6886742 25.62,30.41 C21.7797551,27.4812472 17.4195982,25.3062584 12.77,24 C12.4380124,23.9119551 12.0839428,23.9902232 11.82,24.21 C11.5576421,24.4291053 11.4132597,24.7585932 11.43,25.1 C11.5777199,29.611845 12.3517915,34.0812668 13.73,38.38 C11.3538983,38.4613408 8.99949971,38.8615886 6.73,39.57 C6.1685468,39.7599364 5.86507722,40.3668756 6.05,40.93 C8.2,47.76 11.69,52.36 16.42,54.6 C20.0211256,56.1980772 24.0581783,56.5259775 27.87,55.53 L27.87,62 L2.81,62 L2.81,26 L32.74,2.47 L62.68,26.05 L62.68,62 L37.58,62 L37.58,55.48 C41.3824252,56.4689634 45.4076901,56.1411616 49,54.55 Z M17.34,52.55 C13.42,50.69 10.44,46.89 8.48,41.26 C10.4431331,40.768986 12.4565761,40.5072384 14.48,40.48 C17.67,48.29 22.68,52.05 25.59,53.67 C22.8020852,54.0945366 19.950921,53.7164626 17.37,52.58 L17.34,52.55 Z M25,32.74 C24.4475991,35.2343705 24.1361678,37.7760515 24.07,40.33 C21.5395905,39.1238932 18.7908536,38.4435128 15.99,38.33 C14.6929516,34.5085383 13.919258,30.5290625 13.69,26.5 C17.7755959,27.9481226 21.5962339,30.0560608 25,32.74 L25,32.74 Z M51.79,26.5 C51.498634,30.5388477 50.6817444,34.5224451 49.36,38.35 C46.5853521,38.4676324 43.8635751,39.1480766 41.36,40.35 C41.3036976,37.7959003 40.9955384,35.2535862 40.44,32.76 C43.8556446,30.0668428 47.6898656,27.9521095 51.79,26.5 L51.79,26.5 Z" id="Shape"></path>
                <path d="M74.55,26.31 C74.5608302,26.0488223 74.7786594,25.8443297 75.04,25.8498849 L75.68,25.8498849 L86.85,38.76 L86.85,38.76 L86.85,26.59 C86.8499444,26.3232381 87.0632936,26.1054441 87.33,26.1 L89,26.1 C89.2662575,26.1102519 89.4797481,26.3237425 89.49,26.59 L89.49,43.91 C89.4741235,44.1688379 89.2593239,44.3704865 89,44.3700009 L88.33,44.3700009 L77.18,31.09 L77.18,31.09 L77.18,43.62 C77.18,43.8906195 76.9606195,44.11 76.69,44.11 L75,44.11 C74.7316133,44.1046839 74.5153161,43.8883867 74.51,43.62 L74.55,26.31 Z" id="Path"></path>
                <path d="M98.51,43.44 L106.41,26.13 C106.504181,25.9769927 106.661973,25.874244 106.84,25.85 L107.1,25.85 C107.280699,25.8741075 107.44163,25.9765186 107.54,26.13 L115.38,43.44 C115.462231,43.585301 115.457258,43.7641859 115.367081,43.9046937 C115.276904,44.0452016 115.116348,44.1242347 114.95,44.11 L113.33,44.11 C113.071189,44.1267784 112.831769,43.9725759 112.74,43.73 L111.14,40.2 L102.73,40.2 C102.21,41.39 101.67,42.54 101.16,43.73 C101.056503,43.9628132 100.824773,44.1120633 100.57,44.11 L99,44.11 C98.8236371,44.1521545 98.6392036,44.0843369 98.5321607,43.937972 C98.4251177,43.7916072 98.4163814,43.5952947 98.51,43.44 Z M110.16,38 L107,31 L106.87,31 L103.73,38 L110.16,38 Z" id="Shape"></path>
                <path d="M126.35,26.23 C126.408183,26.0192139 126.59202,25.8673483 126.81,25.85 L127.22,25.85 C127.406252,25.8577197 127.574123,25.9645468 127.66,26.13 L133,39.28 L133.1,39.28 L138.45,26.13 C138.532519,25.9615085 138.702417,25.8533916 138.89,25.85 L139.3,25.85 C139.519162,25.8644016 139.704487,26.0174969 139.76,26.23 L143,43.52 C143.053994,43.6647167 143.02815,43.8271479 142.931909,43.9479613 C142.835668,44.0687747 142.683125,44.1302759 142.53,44.11 L140.86,44.11 C140.639154,44.0993985 140.446126,43.9575818 140.37,43.75 L138.47,32.25 L138.39,32.25 L133.76,44.09 C133.690412,44.2695653 133.512138,44.3830125 133.32,44.37 L132.86,44.37 C132.671719,44.3689539 132.50069,44.2601173 132.42,44.09 L127.77,32.25 L127.67,32.25 L125.81,43.75 C125.752767,43.958267 125.565918,44.1044971 125.35,44.11 L123.68,44.11 C123.526629,44.1266171 123.37514,44.0652479 123.276578,43.9465709 C123.178016,43.8278938 123.145505,43.6677123 123.19,43.52 L126.35,26.23 Z" id="Path"></path>
                <path d="M150.77,43.44 L158.67,26.13 C158.762007,25.9748907 158.92093,25.8714056 159.1,25.85 L159.36,25.85 C159.540699,25.8741075 159.70163,25.9765186 159.8,26.13 L167.64,43.44 C167.722231,43.585301 167.717258,43.7641859 167.627081,43.9046937 C167.536904,44.0452016 167.376348,44.1242347 167.21,44.11 L165.59,44.11 C165.329279,44.1248221 165.088043,43.9720392 164.99,43.73 L163.4,40.2 L155,40.2 C154.48,41.39 153.94,42.54 153.43,43.73 C153.326503,43.9628132 153.094773,44.1120633 152.84,44.11 L151.22,44.11 C151.050213,44.1327261 150.882248,44.0570822 150.786737,43.914878 C150.691227,43.7726737 150.684738,43.5885756 150.77,43.44 L150.77,43.44 Z M162.42,38 L159.26,31 L159.13,31 L156,38 L162.42,38 Z" id="Shape"></path>
                <path d="M175.49,41.51 C175.73,41.18 175.93,40.79 176.16,40.51 C176.237964,40.3537606 176.38113,40.2400804 176.550972,40.1995499 C176.720814,40.1590193 176.899886,40.195802 177.04,40.3 C178.206596,41.2691999 179.639624,41.8619366 181.15,42 C182.93,42 184.06,40.92 184.06,39.61 C184.06,38.06 182.72,37.09 180.18,36.03 C177.64,34.97 175.49,33.56 175.49,30.58 C175.49,28.58 177.04,25.82 181.13,25.82 C182.829565,25.8508424 184.483444,26.3754973 185.89,27.33 C186.02912,27.4248279 186.123693,27.5721567 186.151983,27.7381278 C186.180274,27.904099 186.139849,28.0744387 186.04,28.21 C185.84,28.52 185.61,28.88 185.4,29.21 C185.328052,29.3765656 185.184596,29.5016279 185.009775,29.5501892 C184.834954,29.5987506 184.647548,29.5655947 184.5,29.46 C183.449453,28.7672899 182.250313,28.3321732 181,28.19 C178.83,28.19 178.09,29.55 178.09,30.5 C178.09,31.97 179.22,32.87 181.36,33.74 C184.36,34.95 186.89,36.37 186.89,39.51 C186.89,42.18 184.49,44.37 181.15,44.37 C179.125132,44.3959544 177.15983,43.6851761 175.62,42.37 C175.471405,42.2871125 175.369539,42.1401172 175.344108,41.971879 C175.318677,41.8036409 175.372543,41.6331046 175.49,41.51 L175.49,41.51 Z" id="Path"></path>
                <path d="M199.37,28.52 L195.18,28.52 C194.90938,28.52 194.69,28.3006195 194.69,28.03 L194.69,26.59 C194.695316,26.3216133 194.911613,26.1053161 195.18,26.1 L206.24,26.1 C206.508387,26.1053161 206.724684,26.3216133 206.73,26.59 L206.73,28 C206.73,28.2706195 206.51062,28.49 206.24,28.49 L202.05,28.49 L202.05,43.59 C202.044684,43.8583867 201.828387,44.0746839 201.56,44.08 L199.86,44.08 C199.591613,44.0746839 199.375316,43.8583867 199.37,43.59 L199.37,28.52 Z" id="Path"></path>
                <path d="M215.94,26.59 C215.945316,26.3216133 216.161613,26.1053161 216.43,26.1 L226.72,26.1 C226.99062,26.1 227.210107,26.3193805 227.210107,26.59 L227.210107,28 C227.212754,28.130781 227.162014,28.257021 227.069518,28.3495177 C226.977021,28.4420143 226.850781,28.4927542 226.72,28.49 L218.59,28.49 L218.59,33.74 L225.46,33.74 C225.728387,33.7453161 225.944684,33.9616133 225.95,34.23 L225.95,35.7 C225.95,35.9706195 225.73062,36.19 225.46,36.19 L218.59,36.19 L218.59,41.72 L226.72,41.72 C226.850781,41.7172458 226.977021,41.7679857 227.069518,41.8604823 C227.162014,41.952979 227.212754,42.079219 227.210107,42.21 L227.210107,43.62 C227.212754,43.750781 227.162014,43.877021 227.069518,43.9695177 C226.977021,44.0620143 226.850781,44.1127542 226.72,44.1101066 L216.43,44.1101066 C216.15938,44.1101066 215.94,43.8906195 215.94,43.62 L215.94,26.59 Z" id="Path"></path>
                <path d="M74.55,53 C74.5552132,52.8254739 74.6954739,52.6852132 74.87,52.68 L76.4,52.68 C76.5767311,52.68 76.72,52.8232689 76.72,53 L76.72,57.37 L82.1,57.37 L82.1,53 C82.1,52.8232689 82.2432689,52.68 82.42,52.68 L83.94,52.68 C84.1106114,52.6902895 84.2451306,52.829148 84.25,53 L84.25,63.94 C84.2451306,64.110852 84.1106114,64.2497105 83.94,64.26 L82.42,64.26 C82.2432689,64.26 82.1,64.1167311 82.1,63.94 L82.1,59.38 L76.72,59.38 L76.72,63.94 C76.72,64.1167311 76.5767311,64.26 76.4,64.26 L74.87,64.26 C74.6954739,64.2547868 74.5552132,64.1145261 74.55,63.94 L74.55,53 Z" id="Path"></path>
                <path d="M96.5,52.5299664 C99.7821398,52.5190836 102.453237,55.1679797 102.469791,58.4500963 C102.486192,61.7322129 99.8418255,64.4077946 96.5597416,64.429833 C93.2776576,64.4518714 90.5975993,61.8120419 90.57,58.53 C90.5512908,56.9451729 91.1677877,55.4188086 92.2819127,54.2915321 C93.3960377,53.1642555 94.9150625,52.5299664 96.5,52.5299664 L96.5,52.5299664 Z M96.5,62.28 C98.0454892,62.2921485 99.4451985,61.3694452 100.043199,59.9442855 C100.641199,58.5191258 100.318997,56.8739045 99.2275815,55.7796021 C98.1361664,54.6852997 96.4918022,54.3587518 95.0650675,54.9529847 C93.6383328,55.5472175 92.7119347,56.9444841 92.7199478,58.49 C92.7362417,60.5725051 94.4175451,62.2582563 96.5,62.28 Z" id="Shape"></path>
                <path d="M110,52.77 C110.02069,52.6231922 110.152231,52.5179593 110.3,52.53 L110.57,52.53 C110.686501,52.5243681 110.795706,52.5867709 110.85,52.69 L114.48,60.49 L114.48,60.49 L118.12,52.69 C118.170167,52.5828766 118.28224,52.518835 118.4,52.53 L118.66,52.53 C118.807769,52.5179593 118.93931,52.6231922 118.96,52.77 L120.96,63.88 C120.9906,63.9725341 120.972672,64.074251 120.91228,64.1507476 C120.851888,64.2272442 120.757109,64.2682891 120.66,64.26 L119.16,64.26 C119.013048,64.2478742 118.887323,64.1496518 118.84,64.01 L117.84,57.75 L117.84,57.75 L114.95,64.24 C114.906333,64.3549869 114.792738,64.4280123 114.67,64.42 L114.37,64.42 C114.248096,64.4248705 114.136179,64.352924 114.09,64.24 L111.16,57.75 L111.16,57.75 L110.16,64.01 C110.135991,64.1522062 110.014192,64.2572053 109.87,64.26 L108.38,64.26 C108.282694,64.2668508 108.188133,64.2259642 108.126471,64.1503788 C108.064809,64.0747934 108.043747,63.9739473 108.07,63.88 L110,52.77 Z" id="Path"></path>
                <path d="M127.32,53 C127.32,52.8232689 127.463269,52.68 127.64,52.68 L134.36,52.68 C134.536731,52.68 134.68,52.8232689 134.68,53 L134.68,54.35 C134.68,54.4339794 134.646014,54.5143833 134.585697,54.5728158 C134.525379,54.6312483 134.443936,54.662709 134.36,54.66 L129.47,54.66 L129.47,57.37 L133.55,57.37 C133.724526,57.3752132 133.864787,57.5154739 133.87,57.69 L133.87,59.06 C133.870044,59.1439794 133.836014,59.2243833 133.775697,59.2828158 C133.715379,59.3412483 133.633936,59.372709 133.55,59.37 L129.47,59.37 L129.47,62.27 L134.36,62.27 C134.443936,62.267291 134.525379,62.2987517 134.585697,62.3571842 C134.646014,62.4156167 134.68,62.4960206 134.68,62.58 L134.68,63.93 C134.68,64.1067311 134.536731,64.25 134.36,64.25 L127.64,64.25 C127.463269,64.25 127.32,64.1067311 127.32,63.93 L127.32,53 Z" id="Path"></path>
                <path d="M148.999999,53 C148.999669,52.8307936 149.131124,52.6905751 149.3,52.68 L153.22,52.68 C155.344155,52.5916659 157.345873,53.6745538 158.434273,55.5008128 C159.522672,57.3270718 159.522672,59.6029282 158.434273,61.4291872 C157.345873,63.2554462 155.344155,64.3383341 153.22,64.25 L149.3,64.25 C149.131124,64.2394249 148.999669,64.0992064 148.999999,63.93 L148.999999,53 Z M153,62.23 C155.009438,62.126543 156.585642,60.4670996 156.585642,58.455 C156.585642,56.4429004 155.009438,54.783457 153,54.68 L151.11,54.68 L151.11,62.23 L153,62.23 Z" id="Shape"></path>
                <path d="M165.3,53 C165.297291,52.9160643 165.328752,52.8346208 165.387184,52.7743034 C165.445617,52.713986 165.526021,52.68 165.61,52.68 L172.33,52.68 C172.506731,52.68 172.65,52.8232689 172.65,53 L172.65,54.35 C172.65,54.4339794 172.616014,54.5143833 172.555697,54.5728158 C172.495379,54.6312483 172.413936,54.662709 172.33,54.66 L167.44,54.66 L167.44,57.37 L171.53,57.37 C171.700611,57.3802895 171.835131,57.519148 171.84,57.69 L171.84,59.06 C171.84,59.2312083 171.701208,59.37 171.53,59.37 L167.44,59.37 L167.44,62.27 L172.33,62.27 C172.413936,62.267291 172.495379,62.2987517 172.555697,62.3571842 C172.616014,62.4156167 172.65,62.4960206 172.65,62.58 L172.65,63.93 C172.65,64.1067311 172.506731,64.25 172.33,64.25 L165.61,64.25 C165.526021,64.25 165.445617,64.216014 165.387184,64.1556966 C165.328752,64.0953792 165.297291,64.0139357 165.3,63.93 L165.3,53 Z" id="Path"></path>
                <path d="M178.47,62.64 L179.07,61.64 C179.12498,61.545598 179.217929,61.4794246 179.325126,61.4583681 C179.432323,61.4373116 179.543396,61.463409 179.63,61.53 C180.366787,62.0668065 181.226253,62.4105931 182.13,62.53 C182.497903,62.5631804 182.863751,62.4474779 183.145671,62.2087851 C183.427592,61.9700922 183.602049,61.6283372 183.63,61.26 C183.63,60.42 182.92,59.84 181.53,59.26 C179.98,58.63 178.42,57.64 178.42,55.69 C178.42,54.22 179.52,52.52 182.14,52.52 C183.328979,52.5446964 184.482743,52.9281223 185.45,53.62 C185.614213,53.7537004 185.656641,53.9870533 185.55,54.17 L184.92,55.11 C184.812688,55.3226863 184.555597,55.4113383 184.34,55.31 C183.652872,54.8350323 182.866092,54.5237412 182.04,54.4 C181.693736,54.3607141 181.34609,54.461014 181.073969,54.678711 C180.801848,54.8964079 180.627681,55.213558 180.59,55.56 C180.59,56.33 181.2,56.86 182.54,57.41 C184.14,58.05 185.99,59.01 185.99,61.14 C185.99,62.84 184.52,64.41 182.19,64.41 C180.860562,64.4535157 179.563842,63.9926979 178.56,63.12 C178.41,63 178.33,62.9 178.47,62.64 Z" id="Path"></path>
                <path d="M192.25,53 C192.249916,52.8271016 192.387186,52.6854031 192.56,52.68 L194.1,52.68 C194.270611,52.6902895 194.405131,52.829148 194.41,53 L194.41,63.94 C194.405131,64.110852 194.270611,64.2497105 194.1,64.26 L192.56,64.26 C192.387186,64.2545969 192.249916,64.1128984 192.25,63.94 L192.25,53 Z" id="Path"></path>
                <path d="M206.66,52.53 C208.132573,52.5495656 209.550267,53.0918334 210.66,54.06 C210.722906,54.1220166 210.758321,54.2066644 210.758321,54.295 C210.758321,54.3833356 210.722906,54.4679834 210.66,54.53 L209.66,55.6 C209.605023,55.6607356 209.526922,55.695385 209.445,55.695385 C209.363078,55.695385 209.284977,55.6607356 209.23,55.6 C208.553309,54.9685035 207.665503,54.6119549 206.74,54.6 C204.635795,54.6 202.93,56.3057951 202.93,58.41 C202.93,60.5142049 204.635795,62.22 206.74,62.22 C207.427155,62.2163062 208.106818,62.0769752 208.74,61.81 L208.74,60.44 L207.42,60.44 C207.337771,60.4426954 207.257843,60.4125928 207.197822,60.3563229 C207.137801,60.300053 207.10261,60.2222316 207.1,60.14 L207.1,58.84 C207.1,58.6632689 207.243269,58.52 207.42,58.52 L210.59,58.52 C210.672232,58.5226098 210.750053,58.557801 210.806323,58.6178222 C210.862593,58.6778435 210.892695,58.7577712 210.89,58.84 L210.89,63.07 C210.889228,63.1721123 210.841227,63.2681149 210.76,63.33 C209.508845,64.0363361 208.096766,64.4082984 206.66,64.41 C203.379429,64.41 200.72,61.7505714 200.72,58.47 C200.72,55.1894286 203.379429,52.53 206.66,52.53 L206.66,52.53 Z" id="Path"></path>
                <path d="M217.46,52.82 C217.462608,52.74042 217.496746,52.6651413 217.554892,52.6107464 C217.613038,52.5563516 217.690423,52.5273032 217.77,52.53 L218.18,52.53 L225.06,59.83 L225.06,59.83 L225.06,53 C225.06,52.8232689 225.203269,52.68 225.38,52.68 L226.9,52.68 C227.070611,52.6902895 227.205131,52.829148 227.21,53 L227.21,64.13 C227.19944,64.2933518 227.063692,64.420341 226.9,64.4200007 L226.5,64.4200007 L219.59,56.84 L219.59,56.84 L219.59,63.94 C219.59,64.1167311 219.446731,64.26 219.27,64.26 L217.77,64.26 C217.597186,64.2545969 217.46,64.1128984 217.46,63.94 L217.46,52.82 Z" id="Path"></path>
            </g>
        </g>
    </g>
</svg>